<?xml version="1.0" standalone="no"?>
<!DOCTYPE svg PUBLIC "-//W3C//DTD SVG 20010904//EN"
 "http://www.w3.org/TR/2001/REC-SVG-20010904/DTD/svg10.dtd">
<svg version="1.0" xmlns="http://www.w3.org/2000/svg"
 width="639.000000pt" height="236.000000pt" viewBox="0 0 639.000000 236.000000"
 preserveAspectRatio="xMidYMid meet">

<g transform="translate(0.000000,236.000000) scale(0.100000,-0.100000)"
fill="#000000" stroke="none">
<path d="M1020 1968 c-85 -11 -155 -20 -156 -21 -1 -1 18 -141 42 -312 24
-170 43 -323 43 -340 0 -28 -17 -41 -299 -229 l-300 -199 28 -36 c111 -150
168 -218 177 -213 6 3 108 71 229 150 120 79 219 142 221 140 1 -2 17 -113 35
-248 18 -135 36 -248 39 -251 5 -5 323 28 327 34 1 1 -18 142 -42 312 -24 171
-43 324 -43 340 0 28 17 41 299 229 l300 199 -28 36 c-111 150 -168 218 -177
213 -5 -3 -108 -71 -228 -150 -120 -79 -220 -142 -221 -140 -2 2 -19 115 -37
252 -19 137 -39 250 -44 251 -6 2 -80 -6 -165 -17z"/>
<path d="M3950 1915 c-6 -8 -10 -18 -7 -22 7 -11 26 -255 37 -476 7 -138 6
-194 -2 -212 -9 -19 -9 -28 0 -37 8 -8 12 -50 12 -117 0 -59 3 -157 7 -218 5
-99 8 -113 25 -119 10 -3 25 0 33 6 13 11 14 47 8 231 -3 121 -3 219 1 219 19
0 68 -45 85 -78 41 -81 53 -144 60 -312 l6 -165 30 0 30 0 -1 155 c0 236 -43
386 -122 433 l-33 20 24 26 c86 91 114 297 62 458 -40 126 -81 174 -175 207
-56 19 -65 20 -80 1z m106 -82 c28 -18 62 -80 89 -162 25 -76 18 -245 -14
-316 -22 -50 -48 -85 -62 -85 -10 0 -16 63 -29 315 -6 116 -13 222 -16 238 -6
31 -2 33 32 10z"/>
<path d="M5182 1868 c-18 -18 -15 -87 12 -253 13 -83 29 -208 35 -280 20 -230
41 -548 41 -626 0 -54 4 -80 14 -89 20 -15 61 -9 61 10 0 8 -6 124 -14 258 -8
133 -11 245 -9 248 11 10 127 -284 148 -376 34 -147 33 -145 59 -148 40 -6 43
9 23 109 -30 143 -137 416 -183 465 l-20 22 46 187 c57 234 77 349 73 422 -3
57 -3 58 -33 58 l-30 0 -6 -90 c-6 -83 -71 -403 -88 -433 -8 -14 -71 412 -71
475 0 22 -6 36 -19 43 -24 13 -24 13 -39 -2z"/>
<path d="M3605 1842 c-27 -2 -53 -6 -57 -10 -3 -4 0 -122 8 -262 7 -140 13
-325 14 -410 0 -156 16 -466 25 -507 8 -36 34 -43 141 -35 86 6 99 10 102 26
6 28 -15 36 -99 36 l-76 0 -7 68 c-3 37 -9 163 -13 280 l-6 212 96 0 c101 0
107 3 91 44 -5 13 -23 16 -94 16 l-88 0 -6 28 c-2 15 -8 123 -12 241 l-6 214
82 -5 c62 -4 85 -1 96 9 19 20 10 31 -34 42 -53 13 -99 17 -157 13z"/>
<path d="M2128 1813 c-8 -10 -18 -23 -22 -30 -22 -40 -56 -451 -55 -668 1 -66
-5 -200 -11 -297 -13 -189 -10 -208 31 -208 23 0 34 17 35 55 0 17 6 128 14
247 l14 217 65 6 c36 3 76 8 89 11 13 3 22 0 22 -8 0 -7 7 -56 15 -108 8 -52
22 -147 30 -210 18 -130 32 -190 45 -190 33 0 40 14 40 74 0 33 -5 88 -10 121
-5 33 -19 132 -30 220 -39 307 -96 574 -147 688 -39 86 -91 119 -125 80z m100
-248 c49 -182 72 -284 72 -323 0 -28 -2 -29 -62 -35 -35 -4 -74 -10 -87 -13
l-24 -7 6 179 c8 222 28 378 46 358 5 -5 26 -76 49 -159z"/>
<path d="M4473 1818 c-4 -7 -8 -78 -9 -158 0 -80 -4 -332 -9 -561 -4 -228 -5
-432 -1 -453 6 -33 10 -37 34 -34 l27 3 9 435 c13 638 13 710 -3 748 -14 33
-34 41 -48 20z"/>
<path d="M2723 1811 c-99 -25 -143 -91 -150 -229 -6 -98 13 -190 52 -257 13
-22 64 -79 113 -127 113 -109 145 -169 151 -280 6 -145 -36 -221 -137 -248
-36 -9 -43 -15 -40 -33 5 -36 57 -34 129 5 54 28 65 39 88 88 23 49 26 67 26
165 0 104 -2 114 -33 177 -25 51 -56 90 -133 165 -93 91 -101 103 -124 171
-29 87 -33 182 -10 260 18 59 43 80 101 88 79 11 85 13 82 37 -2 18 -10 22
-43 24 -22 1 -54 -2 -72 -6z"/>
<path d="M4833 1800 c-85 -51 -123 -176 -130 -430 -6 -189 6 -305 52 -511 28
-129 51 -177 102 -212 76 -53 150 -48 214 13 42 40 47 65 17 83 -13 9 -24 3
-58 -31 -52 -52 -85 -55 -134 -12 -43 38 -60 86 -92 265 -35 189 -43 440 -20
575 21 120 58 199 103 217 27 11 34 10 47 -3 22 -22 60 -14 64 13 7 50 -101
72 -165 33z"/>
<path d="M5773 1811 c-99 -25 -143 -91 -150 -229 -6 -98 13 -190 52 -257 13
-22 64 -79 113 -127 113 -109 145 -169 151 -280 6 -145 -36 -221 -137 -248
-36 -9 -43 -15 -40 -33 5 -36 57 -34 129 5 54 28 65 39 88 88 23 49 26 67 26
165 0 104 -2 114 -33 177 -25 51 -56 90 -133 165 -93 91 -101 103 -124 171
-29 87 -33 182 -10 260 18 59 43 80 101 88 79 11 85 13 82 37 -2 18 -10 22
-43 24 -22 1 -54 -2 -72 -6z"/>
<path d="M3185 1771 l-180 -6 0 -25 c0 -24 3 -25 66 -28 l65 -3 18 -407 c9
-224 18 -447 18 -496 2 -82 3 -89 25 -99 47 -21 50 -4 41 253 -4 129 -12 310
-18 402 -5 92 -10 210 -10 263 l0 95 88 0 c94 0 116 7 110 36 -4 22 7 22 -223
15z"/>
</g>
</svg>
